<svg id="Ebene_2" data-name="Ebene 2" xmlns="http://www.w3.org/2000/svg" viewBox="0 0 120.61397 120.61397"><defs><style>.cls-1{fill:#e30613;}.cls-2,.cls-5,.cls-7{fill:#fff;}.cls-2{stroke:#1d1d1b;}.cls-2,.cls-5,.cls-6{stroke-miterlimit:10;}.cls-3,.cls-6{fill:none;}.cls-4{fill:#ffb927;}.cls-5,.cls-6{stroke:#000;}.cls-6{stroke-linecap:round;stroke-width:3px;}</style></defs><title>sting</title><rect class="cls-1" width="120.61397" height="120.61397" rx="12" ry="12"/><path class="cls-2" d="M20.68408,66.92037"/><path d="M67.84848,35.09458c0,5.49177-3.15675,9.94373-8.64852,9.94373s-8.805-5.12782-8.805-10.61959,3.31318-9.26788,8.805-9.26788S67.84848,29.6028,67.84848,35.09458Z"/><polyline points="53.623 85.936 57.819 92.928 62.777 85.936"/><path class="cls-3" d="M74.21848,53.84821a33.87921,33.87921,0,0,0-1.4433-5.05719v5.05719Z"/><path class="cls-3" d="M45.62473,70.46954V45.62439a35.17946,35.17946,0,0,0-3.609,15.96783A37.598,37.598,0,0,0,43.61,72.57672V70.46954Z"/><path class="cls-3" d="M72.77518,70.46954h1.18976v.0141a38.21976,38.21976,0,0,0,1.01434-8.28082h-2.2041Z"/><path class="cls-4" d="M70.689,78.82416H46.316c3.0152,5.13293,7.35828,8.35461,12.18652,8.35461S67.67374,83.95709,70.689,78.82416Z"/><path d="M73.96494,70.48364v-.0141H43.61v2.10718a29.34223,29.34223,0,0,0,2.706,6.24744H70.689A30.49784,30.49784,0,0,0,73.96494,70.48364Z"/><rect class="cls-4" x="45.62473" y="62.20282" width="27.15045" height="8.26672"/><path d="M45.62473,53.84821v8.35461H74.97929c.00311-.20361.00995-.40582.00995-.6106a38.72688,38.72688,0,0,0-.77075-7.744H45.62473Z"/><path class="cls-4" d="M72.77518,53.84821V48.791a29.10757,29.10757,0,0,0-1.46124-3.29749H45.691c-.02252.04309-.04395.08752-.06628.13086v8.22382Z"/><path d="M58.50248,36.00568c-5.17383,0-9.78882,3.70142-12.81146,9.48785H71.31394C68.29124,39.70709,63.67625,36.00568,58.50248,36.00568Z"/><path class="cls-5" d="M24.16591,58.83757s-3.23312,4.72533-3.48182,8.0828c-.22709,3.0657,1.82673,5.82037,10.42163,7.696a17.32164,17.32164,0,0,0,4.84225.36816c3.48874-.234,5.82442-.68623,10.4904-5.45477a7.38814,7.38814,0,0,0,.65922-.77535c4.99678-6.77034,9.90913-15.12492,10.51869-20.611.39007-2.229.77814-4.09394.876-5.63666a5.17,5.17,0,0,0-2.83266-4.93207c-.91434-.45857-1.51672-.40361-6.98424,1.63988a16.21616,16.21616,0,0,0-2.61369,1.25221C39.9791,44.08514,26.96363,54.08772,24.16591,58.83757Z"/><path class="cls-5" d="M93.53652,58.83757s3.23312,4.72533,3.48182,8.0828c.22709,3.0657-1.82673,5.82037-10.42163,7.696a17.32164,17.32164,0,0,1-4.84225.36816c-3.48874-.234-5.82442-.68623-10.4904-5.45477a7.38814,7.38814,0,0,1-.65922-.77535c-4.99678-6.77034-9.90913-15.12492-10.51869-20.611-.39007-2.229-.77814-4.09394-.876-5.63666a5.17,5.17,0,0,1,2.83266-4.93207c.91434-.45857,1.51672-.40361,6.98424,1.63988a16.21616,16.21616,0,0,1,2.61369,1.25221C77.72333,44.08514,90.7388,54.08772,93.53652,58.83757Z"/><path class="cls-6" d="M46.97244,16.86888s7.96,1.26155,9.36021,8.67152"/><path class="cls-6" d="M70.68917,16.86888s-7.96,1.26155-9.36021,8.67152"/><path class="cls-7" d="M34.74552,100.73108a6.17567,6.17567,0,0,0-1.74316-.27344,3.14436,3.14436,0,0,0-1.96338.55664,1.88951,1.88951,0,0,0,.126,3.06641,11.0602,11.0602,0,0,0,2.42578,1.18652,10.82377,10.82377,0,0,1,1.98438.91309,4.05058,4.05058,0,0,1,1.34375,1.36523,4.166,4.166,0,0,1,.53564,2.21484,4.114,4.114,0,0,1-.60889,2.20508,4.21113,4.21113,0,0,1-1.73242,1.55469,5.78069,5.78069,0,0,1-2.63574.56641,8.21567,8.21567,0,0,1-2.709-.45117,9.20678,9.20678,0,0,1-2.28906-1.14453l.90332-1.61719a7.34784,7.34784,0,0,0,1.86865.998,5.83721,5.83721,0,0,0,2.03711.40918,3.66384,3.66384,0,0,0,2.13184-.62988,2.12234,2.12234,0,0,0,.91309-1.86914,2.03572,2.03572,0,0,0-.76611-1.66992,8.32256,8.32256,0,0,0-2.15283-1.165,17.32959,17.32959,0,0,1-2.13135-.94531,4.5036,4.5036,0,0,1-1.45947-1.27051,3.26814,3.26814,0,0,1-.60889-2.02637,3.667,3.667,0,0,1,1.24951-2.8877,4.97307,4.97307,0,0,1,3.24414-1.165,8.93023,8.93023,0,0,1,4.55713,1.21777l-.77686,1.5752A9.08176,9.08176,0,0,0,34.74552,100.73108Z"/><path class="cls-7" d="M49.71818,98.736v1.95313H45.64445v13.22949H43.60734V100.68909H39.6381V98.736Z"/><path class="cls-7" d="M55.01017,98.736v15.18262H52.97306V98.736Z"/><path class="cls-7" d="M72.60783,98.736v15.68652h-.0625L61.394,103.10413l.042,10.81445H59.37785V98.274h.105l11.12988,11.44434-.042-10.98242Z"/><path class="cls-7" d="M86.70939,113.62463a9.25337,9.25337,0,0,1-2.74023.46191,8.64245,8.64245,0,0,1-4.17871-.97656,6.93044,6.93044,0,0,1-2.7832-2.67676,7.54671,7.54671,0,0,1-.97656-3.82227,8.43266,8.43266,0,0,1,1.05078-4.29492,7.16794,7.16794,0,0,1,2.835-2.78223,8.07519,8.07519,0,0,1,3.90527-.96582,9.27036,9.27036,0,0,1,2.415.30469,8.84031,8.84031,0,0,1,2.03711.80859l-.67187,1.86816a7.70409,7.70409,0,0,0-1.69043-.66113,6.89775,6.89775,0,0,0-1.83691-.2832,6.59509,6.59509,0,0,0-3.11914.71387,5.00752,5.00752,0,0,0-2.08887,2.03711,6.25112,6.25112,0,0,0-.73535,3.08691,5.75622,5.75622,0,0,0,.73535,2.91895,5.02928,5.02928,0,0,0,2.07813,1.98438,6.51759,6.51759,0,0,0,3.06641.70313,7.56172,7.56172,0,0,0,1.55371-.15723,4.19454,4.19454,0,0,0,1.26074-.45117v-3.00293H83.80119V106.485h5.082v6.13184A6.93822,6.93822,0,0,1,86.70939,113.62463Z"/></svg>