<svg id="Ebene_1" data-name="Ebene 1" xmlns="http://www.w3.org/2000/svg" viewBox="0 0 141.36314 141.36314"><defs><style>.cls-1{fill:#e30613;}.cls-2,.cls-5{fill:none;}.cls-3{fill:#ffb927;}.cls-4{fill:#fff;}.cls-4,.cls-5{stroke:#000;stroke-miterlimit:10;}.cls-5{stroke-linecap:round;stroke-width:3px;}</style></defs><title>sting_3</title><rect class="cls-1" width="141.36314" height="141.36314" rx="12" ry="12"/><path d="M83.60662,44.0172c0,7.53965-4.3339,13.65175-11.87355,13.65175s-12.08832-7.04-12.08832-14.57963,4.54867-12.72386,12.08832-12.72386S83.60662,36.47755,83.60662,44.0172Z" transform="translate(-0.5727 -0.52454)"/><polyline points="63.504 113.292 69.264 122.893 76.071 113.292"/><path class="cls-2" d="M92.352,69.76405a46.51275,46.51275,0,0,0-1.9815-6.943v6.943Z" transform="translate(-0.5727 -0.52454)"/><path class="cls-2" d="M53.09564,92.58348V58.47358a48.29786,48.29786,0,0,0-4.95481,21.92223,51.61833,51.61833,0,0,0,2.18873,15.08061V92.58348Z" transform="translate(-0.5727 -0.52454)"/><path class="cls-2" d="M90.37048,92.58348H92.0039v.01936A52.47188,52.47188,0,0,0,93.39649,81.2341h-3.026Z" transform="translate(-0.5727 -0.52454)"/><path class="cls-3" d="M87.50637,104.05352H54.04462c4.13956,7.047,10.10217,11.47,16.73087,11.47S83.36672,111.10052,87.50637,104.05352Z" transform="translate(-0.5727 -0.52454)"/><path d="M92.0039,92.60283v-.01936H50.32957v2.89294a40.28394,40.28394,0,0,0,3.71506,8.5771H87.50637A41.87047,41.87047,0,0,0,92.0039,92.60283Z" transform="translate(-0.5727 -0.52454)"/><rect class="cls-3" x="52.52294" y="80.70955" width="37.27484" height="11.34938"/><path d="M53.09564,69.76405v11.47H93.39649c.00427-.27954.01366-.55715.01366-.83829A53.16811,53.16811,0,0,0,92.352,69.76405H53.09564Z" transform="translate(-0.5727 -0.52454)"/><path class="cls-3" d="M90.37048,69.76405V62.821a39.96177,39.96177,0,0,0-2.00614-4.52712H53.18665c-.03092.05916-.06033.12016-.091.17966V69.76405Z" transform="translate(-0.5727 -0.52454)"/><path d="M70.77549,45.26805c-7.10315,0-13.43906,5.08167-17.58885,13.02587h35.1777C84.21447,50.34972,77.87856,45.26805,70.77549,45.26805Z" transform="translate(-0.5727 -0.52454)"/><path class="cls-4" d="M23.63483,76.61394s-4.43875,6.4874-4.78019,11.09687c-.31177,4.2089,2.50791,7.99079,14.30785,10.5658a23.78087,23.78087,0,0,0,6.64792.50545c4.78969-.32123,7.99634-.94212,14.40226-7.48886a10.14318,10.14318,0,0,0,.905-1.06447c6.86007-9.295,13.60424-20.765,14.44111-28.29681.53552-3.06014,1.06831-5.62057,1.2026-7.73857a7.09785,7.09785,0,0,0-3.889-6.77123c-1.2553-.62957-2.0823-.55412-9.58865,2.25139a22.26315,22.26315,0,0,0-3.58834,1.71916C45.34476,56.36034,27.47582,70.09288,23.63483,76.61394Z" transform="translate(-0.5727 -0.52454)"/><path class="cls-4" d="M118.87371,76.61394s4.43875,6.4874,4.78019,11.09687c.31177,4.2089-2.50791,7.99079-14.30785,10.5658a23.78087,23.78087,0,0,1-6.64792.50545c-4.78969-.32123-7.99634-.94212-14.40226-7.48886a10.14318,10.14318,0,0,1-.905-1.06447c-6.86007-9.295-13.60424-20.765-14.44111-28.29681-.53552-3.06014-1.06831-5.62057-1.2026-7.73857a7.09785,7.09785,0,0,1,3.889-6.77123c1.2553-.62957,2.0823-.55412,9.58865,2.25139a22.26315,22.26315,0,0,1,3.58834,1.71916C97.16379,56.36034,115.03272,70.09288,118.87371,76.61394Z" transform="translate(-0.5727 -0.52454)"/><path class="cls-5" d="M54.94591,18.99515s10.9283,1.732,12.85063,11.90512" transform="translate(-0.5727 -0.52454)"/><path class="cls-5" d="M87.50659,18.99515S76.5783,20.72713,74.656,30.90027" transform="translate(-0.5727 -0.52454)"/></svg>